# xmcd
#
# Track frame offsets: 
#        150
#        12862
#        40655
#        52442
#        63135
#        80932
#        99717
#        122615
#        136350
#        144052
#        162502
#        164262
#        174605
#        176600
#        182742
#        186395
#        197002
#        199825
#        210837
#        214905
#        223305
#        235155
#        239480
#        253137
#        256017
#        273545
#        275412
#        289320
#        291637
#        296562
#        299692
#
# Disc length: 4152 seconds
#
# Revision: 2
# Processed by: cddbd v1.4PL0 Copyright (c) Steve Scherf et al.
# Submitted via: ExactAudioCopy v0.90b3
#
DISCID=fe10361f
DTITLE=Johnny Cash - Come Along And Ride This Train - Disc 3
DYEAR=1900
DGENRE=Country
TTITLE0=Intro - Big Foot
TTITLE1=As Long As The Grass Shall Grow
TTITLE2=Apache Tears
TTITLE3=Custer
TTITLE4=The Talking Leaves
TTITLE5=The Ballad Of Ira Hayes
TTITLE6=Drums
TTITLE7=White Girl
TTITLE8=Old Apache Squaw
TTITLE9=The Vanishing Race
TTITLE10=Open Dialogue
TTITLE11=Paul Revere
TTITLE12=Begin West Movement
TTITLE13=The Road To Kaintuck
TTITLE14=To The Shining Mountains
TTITLE15=The Battle Of New Orleans
TTITLE16=Southwestward
TTITLE17=Remember The Alamo
TTITLE18=Opening The West
TTITLE19=Lorena
TTITLE20=The Gettysburg Address
TTITLE21=The West
TTITLE22=Big Foot
TTITLE23=Like A Young Colt
TTITLE24=Mr. Garfield
TTITLE25=A Proud Land
TTITLE26=The Big Battle
TTITLE27=On Wheels And Wings
TTITLE28=Come Take A Trip On My Airship
TTITLE29=Reaching For The Stars
TTITLE30=These Are My People
EXTD=
EXTT0=
EXTT1=
EXTT2=
EXTT3=
EXTT4=
EXTT5=
EXTT6=
EXTT7=
EXTT8=
EXTT9=
EXTT10=
EXTT11=
EXTT12=
EXTT13=
EXTT14=
EXTT15=
EXTT16=
EXTT17=
EXTT18=
EXTT19=
EXTT20=
EXTT21=
EXTT22=
EXTT23=
EXTT24=
EXTT25=
EXTT26=
EXTT27=
EXTT28=
EXTT29=
EXTT30=
PLAYORDER=
